<svg width="16" height="16" viewBox="0 0 16 16" fill="none" xmlns="http://www.w3.org/2000/svg">
<path d="M12.8799 6.66676H3.12652C2.13985 6.66676 1.33984 5.8601 1.33984 4.8801V3.12676C1.33984 2.14009 2.14652 1.34009 3.12652 1.34009H12.8799C13.8665 1.34009 14.6665 2.14676 14.6665 3.12676V4.8801C14.6665 5.8601 13.8599 6.66676 12.8799 6.66676Z" stroke="white" stroke-width="1.5" stroke-linecap="round" stroke-linejoin="round"/>
<path d="M12.8799 14.6668H3.12652C2.13985 14.6668 1.33984 13.8601 1.33984 12.8801V11.1268C1.33984 10.1401 2.14652 9.34009 3.12652 9.34009H12.8799C13.8665 9.34009 14.6665 10.1468 14.6665 11.1268V12.8801C14.6665 13.8601 13.8599 14.6668 12.8799 14.6668Z" stroke="white" stroke-width="1.5" stroke-linecap="round" stroke-linejoin="round"/>
<path d="M4 3.33325V4.66658" stroke="white" stroke-width="1.5" stroke-linecap="round" stroke-linejoin="round"/>
<path d="M6.66699 3.33325V4.66658" stroke="white" stroke-width="1.5" stroke-linecap="round" stroke-linejoin="round"/>
<path d="M4 11.3333V12.6666" stroke="white" stroke-width="1.5" stroke-linecap="round" stroke-linejoin="round"/>
<path d="M6.66699 11.3333V12.6666" stroke="white" stroke-width="1.5" stroke-linecap="round" stroke-linejoin="round"/>
<path d="M9.33301 4H11.9997" stroke="white" stroke-width="1.5" stroke-linecap="round" stroke-linejoin="round"/>
<path d="M9.33301 12H11.9997" stroke="white" stroke-width="1.5" stroke-linecap="round" stroke-linejoin="round"/>
</svg>
